<mxfile host="Electron" agent="Mozilla/5.0 (X11; Linux x86_64) AppleWebKit/537.36 (KHTML, like Gecko) draw.io/26.1.1 Chrome/132.0.6834.210 Electron/34.3.3 Safari/537.36" version="26.1.1">
  <diagram id="pniV-mTTFaeU5RA_Mk38" name="Page-1">
    <mxGraphModel dx="1434" dy="870" grid="1" gridSize="10" guides="1" tooltips="1" connect="1" arrows="1" fold="1" page="1" pageScale="1" pageWidth="827" pageHeight="1169" background="#ffffff" math="0" shadow="0">
      <root>
        <mxCell id="0" />
        <mxCell id="1" parent="0" />
        <mxCell id="YnOe_zIEg5BplMpharGc-10" value="availability zone" style="rounded=1;fillColor=none;strokeColor=#948DA8;strokeWidth=2;dashed=1;arcSize=5;container=1;labelBackgroundColor=#ffffff;fontSize=14;fontColor=#663CDC;labelPosition=center;verticalLabelPosition=bottom;align=center;verticalAlign=top;collapsible=0;" parent="1" vertex="1">
          <mxGeometry x="445" y="70" width="200" height="340" as="geometry" />
        </mxCell>
        <mxCell id="YnOe_zIEg5BplMpharGc-9" value="availability zone" style="rounded=1;fillColor=none;strokeColor=#948DA8;strokeWidth=2;dashed=1;arcSize=5;container=1;labelBackgroundColor=#ffffff;fontSize=14;fontColor=#663CDC;labelPosition=center;verticalLabelPosition=bottom;align=center;verticalAlign=top;collapsible=0;" parent="1" vertex="1">
          <mxGeometry x="195" y="70" width="200" height="340" as="geometry">
            <mxRectangle x="195" y="70" width="130" height="20" as="alternateBounds" />
          </mxGeometry>
        </mxCell>
        <mxCell id="YnOe_zIEg5BplMpharGc-11" value="cloud provider region" style="rounded=1;shadow=0;dashed=1;strokeColor=#663CDC;strokeWidth=2;fillColor=none;fontSize=15;fontColor=#663CDC;labelBackgroundColor=#ffffff;arcSize=7;labelPosition=center;verticalLabelPosition=bottom;align=center;verticalAlign=top;" parent="1" vertex="1">
          <mxGeometry x="170" y="40" width="500" height="420" as="geometry" />
        </mxCell>
        <mxCell id="FIE3iqC0_mgGw-gZsEGH-4" value="" style="group;fontSize=14;fontColor=#663CDC;" parent="1" vertex="1" connectable="0">
          <mxGeometry x="495" y="110" width="100" height="100" as="geometry" />
        </mxCell>
        <mxCell id="FIE3iqC0_mgGw-gZsEGH-5" value="&#xa;Central Server&#xa;Node 2" style="rounded=1;strokeWidth=2;fillColor=none;strokeColor=#663CDC;fontSize=14;fontColor=#663CDC;" parent="FIE3iqC0_mgGw-gZsEGH-4" vertex="1">
          <mxGeometry width="100" height="100.00000000000003" as="geometry" />
        </mxCell>
        <mxCell id="FIE3iqC0_mgGw-gZsEGH-6" value="" style="shape=image;verticalLabelPosition=bottom;labelBackgroundColor=#ffffff;verticalAlign=top;aspect=fixed;imageAspect=0;image=data:image/svg+xml,PHN2ZyB4bWxucz0iaHR0cDovL3d3dy53My5vcmcvMjAwMC9zdmciIHdpZHRoPSIxOCIgaGVpZ2h0PSIxOCIgdmlld0JveD0iMCAwIDE4IDE4IiBmaWxsPSJub25lIj4mI3hhOzxwYXRoIGQ9Ik0xNyAxMEgxQzAuNDUgMTAgMCAxMC40NSAwIDExVjE3QzAgMTcuNTUgMC40NSAxOCAxIDE4SDE3QzE3LjU1IDE4IDE4IDE3LjU1IDE4IDE3VjExQzE4IDEwLjQ1IDE3LjU1IDEwIDE3IDEwWk00IDE2QzIuOSAxNiAyIDE1LjEgMiAxNEMyIDEyLjkgMi45IDEyIDQgMTJDNS4xIDEyIDYgMTIuOSA2IDE0QzYgMTUuMSA1LjEgMTYgNCAxNlpNMTcgMEgxQzAuNDUgMCAwIDAuNDUgMCAxVjdDMCA3LjU1IDAuNDUgOCAxIDhIMTdDMTcuNTUgOCAxOCA3LjU1IDE4IDdWMUMxOCAwLjQ1IDE3LjU1IDAgMTcgMFpNNCA2QzIuOSA2IDIgNS4xIDIgNEMyIDIuOSAyLjkgMiA0IDJDNS4xIDIgNiAyLjkgNiA0QzYgNS4xIDUuMSA2IDQgNloiIGZpbGw9IiM2NjNDREMiLz4mI3hhOzwvc3ZnPg==;strokeColor=#663CDC;fillColor=none;fontSize=14;" parent="FIE3iqC0_mgGw-gZsEGH-4" vertex="1">
          <mxGeometry x="40" y="17.15" width="20" height="20" as="geometry" />
        </mxCell>
        <mxCell id="0fb9divQr0psBxyS32ME-1" value="" style="edgeStyle=orthogonalEdgeStyle;rounded=0;orthogonalLoop=1;jettySize=auto;endArrow=none;endFill=0;fontSize=14;" parent="1" source="FIE3iqC0_mgGw-gZsEGH-9" target="FIE3iqC0_mgGw-gZsEGH-11" edge="1">
          <mxGeometry relative="1" as="geometry" />
        </mxCell>
        <mxCell id="FIE3iqC0_mgGw-gZsEGH-9" value="Primary&#xa;Database Server" style="shape=image;verticalLabelPosition=bottom;labelBackgroundColor=#ffffff;verticalAlign=top;aspect=fixed;imageAspect=0;image=data:image/svg+xml,PHN2ZyB4bWxucz0iaHR0cDovL3d3dy53My5vcmcvMjAwMC9zdmciIHhtbG5zOnhsaW5rPSJodHRwOi8vd3d3LnczLm9yZy8xOTk5L3hsaW5rIiB3aWR0aD0iMTZweCIgaGVpZ2h0PSIxOHB4IiB2aWV3Qm94PSIwIDAgMTYgMTgiIHZlcnNpb249IjEuMSI+JiN4YTsgICAgPCEtLSBHZW5lcmF0b3I6IFNrZXRjaCA1OCAoODQ2NjMpIC0gaHR0cHM6Ly9za2V0Y2guY29tIC0tPiYjeGE7ICAgIDx0aXRsZT5TaGFwZTwvdGl0bGU+JiN4YTsgICAgPGRlc2M+Q3JlYXRlZCB3aXRoIFNrZXRjaC48L2Rlc2M+JiN4YTsgICAgPGcgaWQ9IlN0eWxlZ3VpZGUtJmFtcDstVHlwZXBhZ2VzIiBzdHJva2U9Im5vbmUiIHN0cm9rZS13aWR0aD0iMSIgZmlsbD0ibm9uZSIgZmlsbC1ydWxlPSJldmVub2RkIj4mI3hhOyAgICAgICAgPGcgaWQ9Ikljb25zIiB0cmFuc2Zvcm09InRyYW5zbGF0ZSgtNzY5LjAwMDAwMCwgLTgwMy4wMDAwMDApIiBmaWxsPSIjNjYzQ0RDIj4mI3hhOyAgICAgICAgICAgIDxwYXRoIGQ9Ik03NzcsODAzIEM3NzIuNTgsODAzIDc2OSw4MDQuNzkgNzY5LDgwNyBDNzY5LDgwOS4yMSA3NzIuNTgsODExIDc3Nyw4MTEgQzc4MS40Miw4MTEgNzg1LDgwOS4yMSA3ODUsODA3IEM3ODUsODA0Ljc5IDc4MS40Miw4MDMgNzc3LDgwMyBNNzY5LDgwOSBMNzY5LDgxMiBDNzY5LDgxNC4yMSA3NzIuNTgsODE2IDc3Nyw4MTYgQzc4MS40Miw4MTYgNzg1LDgxNC4yMSA3ODUsODEyIEw3ODUsODA5IEM3ODUsODExLjIxIDc4MS40Miw4MTMgNzc3LDgxMyBDNzcyLjU4LDgxMyA3NjksODExLjIxIDc2OSw4MDkgTTc2OSw4MTQgTDc2OSw4MTcgQzc2OSw4MTkuMjEgNzcyLjU4LDgyMSA3NzcsODIxIEM3ODEuNDIsODIxIDc4NSw4MTkuMjEgNzg1LDgxNyBMNzg1LDgxNCBDNzg1LDgxNi4yMSA3ODEuNDIsODE4IDc3Nyw4MTggQzc3Mi41OCw4MTggNzY5LDgxNi4yMSA3NjksODE0IFoiIGlkPSJTaGFwZSIvPiYjeGE7ICAgICAgICA8L2c+JiN4YTsgICAgPC9nPiYjeGE7PC9zdmc+;fontColor=#663CDC;fontSize=14;sketch=0;" parent="1" vertex="1">
          <mxGeometry x="270.5" y="290" width="49" height="56" as="geometry" />
        </mxCell>
        <mxCell id="FIE3iqC0_mgGw-gZsEGH-11" value="Secondary&#xa;Database Server" style="shape=image;verticalLabelPosition=bottom;labelBackgroundColor=#ffffff;verticalAlign=top;aspect=fixed;imageAspect=0;image=data:image/svg+xml,PHN2ZyB4bWxucz0iaHR0cDovL3d3dy53My5vcmcvMjAwMC9zdmciIHhtbG5zOnhsaW5rPSJodHRwOi8vd3d3LnczLm9yZy8xOTk5L3hsaW5rIiB3aWR0aD0iMTZweCIgaGVpZ2h0PSIxOHB4IiB2aWV3Qm94PSIwIDAgMTYgMTgiIHZlcnNpb249IjEuMSI+JiN4YTsgICAgPCEtLSBHZW5lcmF0b3I6IFNrZXRjaCA1OCAoODQ2NjMpIC0gaHR0cHM6Ly9za2V0Y2guY29tIC0tPiYjeGE7ICAgIDx0aXRsZT5TaGFwZTwvdGl0bGU+JiN4YTsgICAgPGRlc2M+Q3JlYXRlZCB3aXRoIFNrZXRjaC48L2Rlc2M+JiN4YTsgICAgPGcgaWQ9IlN0eWxlZ3VpZGUtJmFtcDstVHlwZXBhZ2VzIiBzdHJva2U9Im5vbmUiIHN0cm9rZS13aWR0aD0iMSIgZmlsbD0ibm9uZSIgZmlsbC1ydWxlPSJldmVub2RkIj4mI3hhOyAgICAgICAgPGcgaWQ9Ikljb25zIiB0cmFuc2Zvcm09InRyYW5zbGF0ZSgtNzY5LjAwMDAwMCwgLTgwMy4wMDAwMDApIiBmaWxsPSIjNjYzQ0RDIj4mI3hhOyAgICAgICAgICAgIDxwYXRoIGQ9Ik03NzcsODAzIEM3NzIuNTgsODAzIDc2OSw4MDQuNzkgNzY5LDgwNyBDNzY5LDgwOS4yMSA3NzIuNTgsODExIDc3Nyw4MTEgQzc4MS40Miw4MTEgNzg1LDgwOS4yMSA3ODUsODA3IEM3ODUsODA0Ljc5IDc4MS40Miw4MDMgNzc3LDgwMyBNNzY5LDgwOSBMNzY5LDgxMiBDNzY5LDgxNC4yMSA3NzIuNTgsODE2IDc3Nyw4MTYgQzc4MS40Miw4MTYgNzg1LDgxNC4yMSA3ODUsODEyIEw3ODUsODA5IEM3ODUsODExLjIxIDc4MS40Miw4MTMgNzc3LDgxMyBDNzcyLjU4LDgxMyA3NjksODExLjIxIDc2OSw4MDkgTTc2OSw4MTQgTDc2OSw4MTcgQzc2OSw4MTkuMjEgNzcyLjU4LDgyMSA3NzcsODIxIEM3ODEuNDIsODIxIDc4NSw4MTkuMjEgNzg1LDgxNyBMNzg1LDgxNCBDNzg1LDgxNi4yMSA3ODEuNDIsODE4IDc3Nyw4MTggQzc3Mi41OCw4MTggNzY5LDgxNi4yMSA3NjksODE0IFoiIGlkPSJTaGFwZSIvPiYjeGE7ICAgICAgICA8L2c+JiN4YTsgICAgPC9nPiYjeGE7PC9zdmc+;fontColor=#663CDC;fontSize=14;" parent="1" vertex="1">
          <mxGeometry x="520.5" y="290" width="49" height="56" as="geometry" />
        </mxCell>
        <mxCell id="0fb9divQr0psBxyS32ME-3" value="" style="edgeStyle=orthogonalEdgeStyle;rounded=0;orthogonalLoop=1;jettySize=auto;endArrow=none;endFill=0;fontSize=14;" parent="1" source="lNWLe0iArniko4ouYgYs-14" target="FIE3iqC0_mgGw-gZsEGH-9" edge="1">
          <mxGeometry relative="1" as="geometry">
            <mxPoint x="295" y="209.9999999999999" as="sourcePoint" />
          </mxGeometry>
        </mxCell>
        <mxCell id="FIE3iqC0_mgGw-gZsEGH-13" value="DB connection (tcp/ip)" style="edgeStyle=orthogonalEdgeStyle;rounded=0;orthogonalLoop=1;jettySize=auto;entryX=0.5;entryY=0;entryDx=0;entryDy=0;exitX=0.5;exitY=1;exitDx=0;exitDy=0;fontColor=#663CDC;fontSize=14;" parent="1" source="FIE3iqC0_mgGw-gZsEGH-5" target="FIE3iqC0_mgGw-gZsEGH-9" edge="1">
          <mxGeometry x="0.4286" y="-10" relative="1" as="geometry">
            <Array as="points">
              <mxPoint x="545" y="250" />
              <mxPoint x="295" y="250" />
            </Array>
            <mxPoint x="301" y="440" as="targetPoint" />
            <mxPoint as="offset" />
          </mxGeometry>
        </mxCell>
        <mxCell id="lNWLe0iArniko4ouYgYs-13" value="" style="group;fontSize=14;fontColor=#663CDC;" parent="1" vertex="1" connectable="0">
          <mxGeometry x="245" y="110" width="100" height="100" as="geometry" />
        </mxCell>
        <mxCell id="lNWLe0iArniko4ouYgYs-14" value="&#xa;Central Server&#xa;Node 1" style="rounded=1;strokeWidth=2;fillColor=none;strokeColor=#663CDC;fontSize=14;fontColor=#663CDC;" parent="lNWLe0iArniko4ouYgYs-13" vertex="1">
          <mxGeometry width="100" height="100.00000000000003" as="geometry" />
        </mxCell>
        <mxCell id="lNWLe0iArniko4ouYgYs-15" value="" style="shape=image;verticalLabelPosition=bottom;labelBackgroundColor=#ffffff;verticalAlign=top;aspect=fixed;imageAspect=0;image=data:image/svg+xml,PHN2ZyB4bWxucz0iaHR0cDovL3d3dy53My5vcmcvMjAwMC9zdmciIHdpZHRoPSIxOCIgaGVpZ2h0PSIxOCIgdmlld0JveD0iMCAwIDE4IDE4IiBmaWxsPSJub25lIj4mI3hhOzxwYXRoIGQ9Ik0xNyAxMEgxQzAuNDUgMTAgMCAxMC40NSAwIDExVjE3QzAgMTcuNTUgMC40NSAxOCAxIDE4SDE3QzE3LjU1IDE4IDE4IDE3LjU1IDE4IDE3VjExQzE4IDEwLjQ1IDE3LjU1IDEwIDE3IDEwWk00IDE2QzIuOSAxNiAyIDE1LjEgMiAxNEMyIDEyLjkgMi45IDEyIDQgMTJDNS4xIDEyIDYgMTIuOSA2IDE0QzYgMTUuMSA1LjEgMTYgNCAxNlpNMTcgMEgxQzAuNDUgMCAwIDAuNDUgMCAxVjdDMCA3LjU1IDAuNDUgOCAxIDhIMTdDMTcuNTUgOCAxOCA3LjU1IDE4IDdWMUMxOCAwLjQ1IDE3LjU1IDAgMTcgMFpNNCA2QzIuOSA2IDIgNS4xIDIgNEMyIDIuOSAyLjkgMiA0IDJDNS4xIDIgNiAyLjkgNiA0QzYgNS4xIDUuMSA2IDQgNloiIGZpbGw9IiM2NjNDREMiLz4mI3hhOzwvc3ZnPg==;strokeColor=#663CDC;fillColor=none;fontSize=14;" parent="lNWLe0iArniko4ouYgYs-13" vertex="1">
          <mxGeometry x="40" y="17.15" width="20" height="20" as="geometry" />
        </mxCell>
      </root>
    </mxGraphModel>
  </diagram>
</mxfile>
